<svg width="512" height="512" viewBox="0 0 512 512" xmlns="http://www.w3.org/2000/svg">
  <defs>
    <radialGradient id="bgGlow" cx="35%" cy="30%" r="75%">
      <stop offset="0%" stop-color="#1c1130" />
      <stop offset="100%" stop-color="#0a0714" />
    </radialGradient>
    <radialGradient id="inkGlow" cx="50%" cy="50%" r="50%">
      <stop offset="0%" stop-color="#ffd98e" />
      <stop offset="100%" stop-color="#c9a961" stop-opacity="0" />
    </radialGradient>
    <linearGradient id="quillGrad" x1="0%" y1="0%" x2="100%" y2="100%">
      <stop offset="0%" stop-color="#a970ff" />
      <stop offset="100%" stop-color="#5b8fd6" />
    </linearGradient>
  </defs>

  <rect width="512" height="512" rx="96" fill="url(#bgGlow)" />

  <g transform="translate(106,106) scale(3)">
    <!-- Parchment, folded corner -->
    <path
      d="M14 54 H62 L70 62 V84 Q70 86 68 86 H16 Q14 86 14 84 Z"
      stroke="url(#quillGrad)"
      stroke-width="2"
      fill="none"
      stroke-linejoin="round"
    />
    <path d="M62 54 V62 H70" stroke="url(#quillGrad)" stroke-width="2" fill="none" stroke-linejoin="round" />
    <line x1="21" y1="66" x2="55" y2="66" stroke="url(#quillGrad)" stroke-width="1.3" opacity="0.7" />
    <line x1="21" y1="73" x2="60" y2="73" stroke="url(#quillGrad)" stroke-width="1.3" opacity="0.7" />
    <line x1="21" y1="80" x2="48" y2="80" stroke="url(#quillGrad)" stroke-width="1.3" opacity="0.7" />

    <!-- Quill feather, nib resting on the parchment -->
    <path
      d="M84 10 C90 20 87 33 78 44 C69 55 58 63 47 72 C40 78 34 82 29 86
         C33 80 38 74 45 66 C55 56 66 46 74 35 C81 26 82 18 84 10 Z"
      stroke="url(#quillGrad)"
      stroke-width="2"
      fill="none"
      stroke-linejoin="round"
    />
    <path d="M29 86 L83 12" stroke="url(#quillGrad)" stroke-width="1.4" />
    <path
      d="M42 68 L34 74 M50 60 L43 67 M58 52 L51 59 M66 43 L59 50 M73 34 L67 41"
      stroke="url(#quillGrad)"
      stroke-width="1"
      opacity="0.6"
    />

    <circle cx="29" cy="86" r="4" fill="url(#inkGlow)" />
    <circle cx="29" cy="86" r="1.3" fill="#2a1740" />
  </g>
</svg>
